{"title":"Scooby Doo in Where's My Mummy? (2005) BRRIP 720P","uid":7950069,"size":2164506626,"categoryP":"video","categoryS":"hd___movies","magnet":"?xt=urn:btih:0ad5b7f0a006cbfb980744c22f55f5625738e9c1&amp;dn=Scooby+Doo+in+Where%27s+My+Mummy%3F+%282005%29+BRRIP+720P&amp;tr=udp%3A%2F%2Ftracker.openbittorrent.com%3A80&amp;tr=udp%3A%2F%2Fopen.demonii.com%3A1337&amp;tr=udp%3A%2F%2Ftracker.coppersurfer.tk%3A6969&amp;tr=udp%3A%2F%2Fexodus.desync.com%3A6969","seeders":2,"leechers":0,"uploader":"jmanwf","files":-1,"time":1356248215,"description":"Storyline\n\nScooby-Doo and the Mystery Inc. gang become involved in a supernatural mystery in \n\nEgypt. \n\n\nFormat                                   : MPEG-4\nFormat profile                           : Base Media\nCodec ID                                 : isom\nFile size                                : 2.02 GiB\nDuration                                 : 1h 14mn\nOverall bit rate mode                    : Variable\nOverall bit rate                         : 3 879 Kbps\nMovie name                               : Scooby-Doo In Where's My Mummy?\nPerformer                                : Joe Sichta\nGenre                                    : Kids &amp; Family\nRecorded date                            : UTC 2008-03-01 08:00:00\nTagged date                              : UTC 2012-12-22 08:28:53\nCover                                    : Yes\n\nVideo\nID                                       : 1\nFormat                                   : AVC\nFormat/Info                              : Advanced Video Codec\nFormat profile                           : &lt;a class=&quot;__cf_email__&quot; href=&quot;/cdn-cgi/l/email-protection&quot; data-cfemail=&quot;9edcffedfbf2f7f0fbded2adb0ae&quot;&gt;[email&amp;#160;protected]&lt;/a&gt;&lt;script cf-hash='f9e31' type=&quot;text/javascript&quot;&gt;\n/* &lt;![CDATA[ */!function(){try{var t=&quot;currentScript&quot;in document?document.currentScript:function(){for(var t=document.getElementsByTagName(&quot;script&quot;),e=t.length;e--;)if(t[e].getAttribute(&quot;cf-hash&quot;))return t[e]}();if(t&amp;&amp;t.previousSibling){var e,r,n,i,c=t.previousSibling,a=c.getAttribute(&quot;data-cfemail&quot;);if(a){for(e=&quot;&quot;,r=parseInt(a.substr(0,2),16),n=2;a.length-n;n+=2)i=parseInt(a.substr(n,2),16)^r,e+=String.fromCharCode(i);e=document.createTextNode(e),c.parentNode.replaceChild(e,c)}}}catch(u){}}();/* ]]&gt; */&lt;/script&gt;\nFormat settings, CABAC                   : No\nFormat settings, ReFrames                : 3 frames\nCodec ID                                 : avc1\nCodec ID/Info                            : Advanced Video Coding\nDuration                                 : 1h 14mn\nBit rate                                 : 3 748 Kbps\nWidth                                    : 1 280 pixels\nHeight                                   : 720 pixels\nDisplay aspect ratio                     : 16:9\nFrame rate mode                          : Constant\nFrame rate                               : 23.976 fps\nColor space                              : YUV\nChroma subsampling                       : 4:2:0\nBit depth                                : 8 bits\nScan type                                : Progressive\nBits/(Pixel*Frame)                       : 0.170\nStream size                              : 1.95 GiB (97%)\nWriting library                          : x264 core 102\nEncoding settings                        : cabac=0 / ref=3 / deblock=1:0:0 / \nAudio\nID                                       : 2\nFormat                                   : AAC\nFormat/Info                              : Advanced Audio Codec\nFormat profile                           : LC\nCodec ID                                 : 40\nDuration                                 : 1h 14mn\nBit rate mode                            : Variable\nBit rate                                 : 128 Kbps\nMaximum bit rate                         : 203 Kbps\nChannel(s)                               : 2 channels\nChannel positions                        : Front: L R\nSampling rate                            : 48.0 KHz\nCompression mode                         : Lossy\nStream size                              : 68.1 MiB (3%)\nLanguage                                 : English\n\nText\nID                                       : 3","torrent":{"xt":"urn:btih:0ad5b7f0a006cbfb980744c22f55f5625738e9c1","amp;dn":"Scooby+Doo+in+Where%27s+My+Mummy%3F+%282005%29+BRRIP+720P","amp;tr":["udp%3A%2F%2Ftracker.openbittorrent.com%3A80","udp%3A%2F%2Fopen.demonii.com%3A1337","udp%3A%2F%2Ftracker.coppersurfer.tk%3A6969","udp%3A%2F%2Fexodus.desync.com%3A6969"],"infoHash":"0ad5b7f0a006cbfb980744c22f55f5625738e9c1","infoHashBuffer":{"type":"Buffer","data":[10,213,183,240,160,6,203,251,152,7,68,194,47,85,245,98,87,56,233,193]},"announce":[],"urlList":[]}}